<?xml version="1.0" encoding="UTF-8" standalone="no"?>
<!-- Created with Inkscape (http://www.inkscape.org/) -->

<svg
   version="1.1"
   id="svg462"
   width="1024"
   height="1024"
   viewBox="0 0 1024 1024"
   sodipodi:docname="soul.svg"
   inkscape:version="1.2.2 (b0a8486541, 2022-12-01)"
   xmlns:inkscape="http://www.inkscape.org/namespaces/inkscape"
   xmlns:sodipodi="http://sodipodi.sourceforge.net/DTD/sodipodi-0.dtd"
   xmlns="http://www.w3.org/2000/svg"
   xmlns:svg="http://www.w3.org/2000/svg">
  <defs
     id="defs466" />
  <sodipodi:namedview
     id="namedview464"
     pagecolor="#ffffff"
     bordercolor="#000000"
     borderopacity="0.25"
     inkscape:showpageshadow="2"
     inkscape:pageopacity="0.0"
     inkscape:pagecheckerboard="0"
     inkscape:deskcolor="#d1d1d1"
     showgrid="false"
     inkscape:zoom="0.55859375"
     inkscape:cx="512"
     inkscape:cy="512"
     inkscape:window-width="1536"
     inkscape:window-height="827"
     inkscape:window-x="0"
     inkscape:window-y="0"
     inkscape:window-maximized="1"
     inkscape:current-layer="g468" />
  <g
     inkscape:groupmode="layer"
     inkscape:label="Image"
     id="g468">
    <path
       style="fill:#000000"
       d="m 366.49955,781.80847 c -8.4031,-1.8599 -16.4546,-7.64795 -20.6885,-14.87265 -3.8783,-6.61775 -4.4858,-18.66796 -1.313,-26.04333 2.6031,-6.05108 9.1293,-12.46943 15.8259,-15.56427 4.6736,-2.15994 4.7217,-2.16112 109.1756,-2.67551 116.8628,-0.5755 108.7057,-0.0436 120.5741,-7.86222 3.4599,-2.27929 19.8667,-17.8943 39.4259,-37.52323 l 33.5,-33.61937 -3,-2.42937 -3,-2.42936 -8.9905,8.68909 c -4.9448,4.77899 -20.6948,20.2233 -35,34.32069 -28.6703,28.25377 -31.6792,30.44913 -43.8217,31.97381 -10.907,1.36952 -18.3698,-1.00578 -26.3916,-8.40009 -11.4375,-10.54273 -13.1184,-25.71912 -4.507,-40.69265 1.4274,-2.48198 15.1054,-17.17152 30.3957,-32.64343 25.5044,-25.80746 28.0877,-28.73936 31.2782,-35.5 9.9109,-21.00075 5.4572,-48.19125 -10.7273,-65.49259 -6.9833,-7.46511 -11.9386,-11.10884 -21.5176,-15.8223 -10.4431,-5.13863 -14.1644,-5.55436 -49.7182,-5.55436 -19.7915,0 -34.4639,-0.43007 -37.7008,-1.10508 -9.7324,-2.02959 -17.6867,-6.5865 -25.8328,-14.79949 -18.7024,-18.85581 -22.7018,-41.84635 -11.3237,-65.09543 3.288,-6.71846 6.0248,-9.86743 26.2639,-30.21888 l 22.5934,-22.71889 91.0526,-0.19483 91.0525,-0.19483 5.9475,2.71786 c 7.4454,3.40237 12.0187,7.68705 15.0601,14.10957 6.1735,13.03644 0.1491,30.88162 -12.8583,38.08871 l -5.2544,2.91129 -94.1774,0.5 c -93.1668,0.49463 -94.207,0.52212 -96.9382,2.56179 -4.9571,3.70202 -6.769,7.03139 -6.769,12.43821 0,5.40585 1.811,8.73442 6.7672,12.43821 2.6415,1.97401 4.4057,2.08623 41.4382,2.6358 36.2768,0.53836 39.1451,0.71358 46.1792,2.82104 10.1022,3.02665 22.0735,8.74397 31.1912,14.89654 7.3184,4.93842 12.5067,9.42824 59.9202,51.85301 30.6783,27.45038 37.6055,35.67318 48.7691,57.88991 10.734,21.36184 14.0436,34.53267 14.8196,58.97653 0.4681,14.74601 0.2534,18.50923 -1.6127,28.26285 -8.9628,46.84733 -39.3845,82.97274 -81.8547,97.20154 -17.9879,6.02651 -14.5655,5.88005 -150.3321,6.43338 -68.4203,0.27885 -125.9756,0.1584 -127.9006,-0.26767 z m -50,-67.1835 c -5.6388,-0.97727 -12.1544,-4.82012 -17.2278,-10.16086 -5.3095,-5.5892 -6.7585,-9.52658 -6.7666,-18.38706 -0.011,-11.84522 9.3061,-24.64298 20.322,-27.91435 4.333,-1.28676 20.0707,-1.49537 112.8135,-1.49537 h 107.778 l -3.7095,7.25 c -3.5912,7.0186 -3.7088,7.58513 -3.6855,17.75 0.028,12.25117 1.8944,18.12602 8.5311,26.85361 2.239,2.94448 3.9301,5.48127 3.7579,5.63731 -0.6488,0.58798 -218.4689,1.0463 -221.8131,0.46672 z m 29.9936,-66.89198 c -4.9435,-1.50372 -8.6296,-3.96916 -13.1334,-8.78403 -5.4824,-5.8612 -7.2789,-10.59028 -7.3244,-19.28163 -0.047,-8.9696 2.3687,-14.67378 8.7837,-20.74086 9.2698,-8.76694 2.0317,-8.21813 112.1805,-8.50581 77.9136,-0.20348 97.4533,-0.51185 99.3035,-1.56715 5.9082,-3.36976 8.0833,-13.57945 4.237,-19.88763 -3.7487,-6.14812 -4.6788,-6.29855 -38.9416,-6.29855 -31.5171,0 -36.9389,-0.47227 -46.8951,-4.08482 -16.2459,-5.89474 -17.9286,-7.21608 -80.2381,-63.00787 -31.8496,-28.51802 -42.4399,-39.32215 -50.8101,-51.83566 -15.7994,-23.62034 -22.5324,-46.27566 -22.6079,-76.07165 -0.046,-18.16382 1.2283,-26.47484 6.5363,-42.62759 6.3575,-19.34684 14.9912,-33.45012 29.3904,-48.00991 19.2143,-19.42872 41.9742,-30.90821 68.0256,-34.31041 6.5768,-0.85889 40.6365,-1.09145 126.5,-0.86372 l 117.5,0.31163 4.3452,2.3189 c 2.3899,1.27539 6.3048,4.27847 8.6999,6.67351 13.2368,13.23687 7.6053,37.99249 -10.5451,46.35479 l -5.5,2.53399 -93.5,0.33628 c -60.1992,0.21651 -95.6221,0.71539 -99.4583,1.40071 -3.277,0.58543 -8.902,2.46588 -12.5,4.17877 -5.803,2.76266 -10.5708,7.11529 -42.2208,38.54435 l -35.6792,35.43 2.6792,2.76988 2.6791,2.76989 34.5,-34.28396 c 36.166,-35.93956 38.707,-38.01085 50.5,-41.16576 13.735,-3.67441 27.6644,1.07161 35.1495,11.97607 4.2958,6.25824 5.6857,11.61654 5.1003,19.66258 -0.8512,11.69844 -2.2945,13.63814 -34.2277,46 -24.953,25.28798 -29.6263,30.49946 -32.7305,36.5 -4.967,9.60147 -7.0656,18.19365 -7.083,29 -0.019,11.67221 1.5874,19.06492 6.3808,29.36988 3.1816,6.84009 5.4027,9.8721 12.1519,16.58891 9.3314,9.28659 16.412,13.30048 29.1687,16.53537 7.1314,1.80842 11.2159,2.00792 41.5,2.02693 32.7166,0.0205 33.7639,0.0825 40.2772,2.38145 8.496,2.9988 19.3898,10.22082 25.2515,16.74047 14.6922,16.34128 17.8621,42.12115 7.3257,59.57733 -1.8258,3.02479 -13.0785,15.11638 -26.7555,28.75 l -23.6045,23.52966 -95.9522,-0.086 c -52.7737,-0.0473 -97.0801,-0.42905 -98.4586,-0.84839 z m 155.8639,-280.49222 c -0.3534,-0.38052 0.8851,-2.96193 2.7522,-5.73648 9.3978,-13.965 8.31,-34.74734 -2.4608,-47.01461 -1.7319,-1.97251 -3.1489,-4.03521 -3.1489,-4.58378 0,-1.16032 121.2047,-2.60129 174.5,-2.07459 33.3182,0.32928 34.1057,0.38379 39.2701,2.71782 10.4424,4.71934 18.2576,16.5626 18.2251,27.6182 -0.033,11.29129 -10.0204,24.35248 -21.0369,27.51197 -3.6643,1.0509 -207.1569,2.57778 -208.1008,1.56147 z"
       id="path472" />
  </g>
</svg>
