<?xml version="1.0" encoding="UTF-8" standalone="no"?>
<!-- Created with Inkscape (http://www.inkscape.org/) -->

<svg
   version="1.1"
   id="svg119"
   width="2752"
   height="1536"
   viewBox="0 0 2752 1536"
   sodipodi:docname="yoga.svg"
   inkscape:version="1.2.2 (b0a8486541, 2022-12-01)"
   xmlns:inkscape="http://www.inkscape.org/namespaces/inkscape"
   xmlns:sodipodi="http://sodipodi.sourceforge.net/DTD/sodipodi-0.dtd"
   xmlns="http://www.w3.org/2000/svg"
   xmlns:svg="http://www.w3.org/2000/svg">
  <defs
     id="defs123" />
  <sodipodi:namedview
     id="namedview121"
     pagecolor="#ffffff"
     bordercolor="#000000"
     borderopacity="0.25"
     inkscape:showpageshadow="2"
     inkscape:pageopacity="0.0"
     inkscape:pagecheckerboard="0"
     inkscape:deskcolor="#d1d1d1"
     showgrid="false"
     inkscape:zoom="0.39462209"
     inkscape:cx="1376"
     inkscape:cy="770.35727"
     inkscape:window-width="1536"
     inkscape:window-height="827"
     inkscape:window-x="0"
     inkscape:window-y="0"
     inkscape:window-maximized="1"
     inkscape:current-layer="g125" />
  <g
     inkscape:groupmode="layer"
     inkscape:label="Image"
     id="g125">
    <path
       style="fill:#000000;stroke-width:1.12329"
       d="m 1201.5139,1386.2702 c -6.1356,-1.9983 -7.908,-6.2946 -5.2489,-12.7214 2.3022,-5.5637 9.3678,-13.185 14.684,-15.8386 3.2732,-1.6337 3.0401,-1.7036 -21.0296,-6.3096 -35.0515,-6.7076 -62.5165,-15.3294 -84.8274,-26.6293 -14.4662,-7.3268 -31.4671,-20.3896 -36.1405,-27.7695 -7.0971,-11.2066 -4.005,-26.4346 6.9705,-34.3258 5.2933,-3.8062 5.1379,-4.4732 -0.752,-3.2285 -6.6232,1.3997 -21.1788,0.3554 -31.0264,-2.2259 -10.4156,-2.7301 -25.795,-10.5428 -31.868,-16.1889 -4.5605,-4.2398 -4.633,-4.4303 -2.3964,-6.3129 3.079,-2.5918 7.8095,-2.4463 16.584,0.5098 4.0014,1.3481 7.4769,2.4512 7.7233,2.4512 0.2463,0 1.7448,-4.3018 3.3297,-9.5593 3.5384,-11.7382 4.1589,-12.6677 8.9979,-13.4773 2.9608,-0.4954 5.441,0.041 10.6282,2.2964 4.8058,2.0897 9.8492,3.2624 17.4039,4.0466 11.5374,1.1978 19.0731,2.9362 25.7622,5.9426 4.0355,1.814 4.5116,1.8321 8.3919,0.3206 5.2176,-2.0325 14.6712,-7.731 45.3161,-27.3159 40.38,-25.8064 49.6251,-32.1751 52.1816,-35.946 3.567,-5.2625 13.4575,-37.0639 17.3303,-55.7233 7.3773,-35.545 8.442,-40.0519 11.5807,-49.0211 1.7929,-5.1226 5.6753,-13.2065 8.6283,-17.9641 6.6419,-10.7019 16.238,-17.98 30.9407,-23.4676 9.7221,-3.6285 9.8534,-3.727 8.4991,-6.3727 -0.7567,-1.4779 -1.6861,-7.1173 -2.0653,-12.53157 -0.8132,-11.60627 0.9346,-19.26802 8.7143,-38.19637 6.4556,-15.70747 8.5037,-26.29856 9.4791,-49.02107 0.8429,-19.63311 2.1322,-27.35945 6.134,-36.76568 8.5056,-19.99082 24.0706,-32.20097 46.8571,-36.75705 5.0208,-1.00395 13.4175,-1.52674 24.6363,-1.5339 14.8404,-0.0107 18.2677,0.30834 26.7691,2.48238 13.7935,3.52738 20.1215,6.78384 29.1697,15.01045 13.5262,12.29854 18.4392,26.3165 20.3461,58.05401 1.4334,23.86243 2.998,31.45914 10.2996,50.00767 2.8308,7.19122 5.7961,15.91521 6.5898,19.38677 1.4014,6.1313 0.8826,25.40426 -0.8246,30.63076 -0.7075,2.1657 -0.2319,2.6322 3.827,3.7501 8.1913,2.2564 23.5031,10.784 28.2977,15.76 11.8257,12.2723 16.3301,24.6025 26.4202,72.3212 2.0737,9.8077 6.8098,27.2089 10.5248,38.6697 5.8079,17.9186 7.3027,21.3135 10.6701,24.2355 7.0912,6.1522 75.4595,50.0831 89.9847,57.8205 l 7.542,4.0174 5.9711,-2.279 c 8.3992,-3.2056 13.5264,-4.3087 24.8828,-5.3538 6.9588,-0.6402 12.4209,-1.8857 18.3742,-4.1895 7.934,-3.0703 8.6859,-3.1855 11.8487,-1.8173 2.911,1.2593 3.7891,2.866 6.3659,11.6474 1.644,5.6027 3.3098,10.4313 3.7024,10.7303 0.3925,0.2991 3.8956,-0.6451 7.7849,-2.0981 8.3652,-3.1257 13.4927,-3.3522 16.6034,-0.7338 2.1708,1.8272 2.1508,2.0324 -0.4701,4.8363 -7.3516,7.8653 -27.2356,17.1255 -42.4392,19.7645 -6.8528,1.1896 -21.3662,0.8437 -26.5248,-0.6321 -1.69,-0.4837 -0.6559,0.864 3.0111,3.924 3.0717,2.5633 7.0518,7.1016 8.8443,10.0845 4.5214,7.5233 3.8725,18.0257 -1.5851,25.6649 -8.5259,11.9334 -26.843,23.7091 -53.3984,34.3289 -28.1205,11.2455 -44.103,15.2674 -88.2457,22.2064 -2.3853,0.3748 -1.9623,0.9829 3.8888,5.5911 7.4685,5.8818 11.1157,11.0744 12.0063,17.0943 0.5394,3.6457 0.1318,4.5284 -3.3071,7.1475 -2.1573,1.6435 -5.0165,2.9881 -6.3539,2.9881 -1.3372,0 -7.4294,-1.287 -13.5382,-2.8601 -15.079,-3.883 -20.59,-4.6293 -51.1509,-6.9268 -14.5106,-1.091 -40.5718,-3.5304 -57.9137,-5.4208 -17.3422,-1.8906 -39.9286,-3.6937 -50.1921,-4.007 -17.5859,-0.5368 -20.1446,-0.3655 -44.4009,2.9721 -24.9188,3.4287 -36.3346,4.5984 -77.2184,7.912 -13.3734,1.0841 -22.6656,2.4212 -30.2437,4.3521 -15.0186,3.8263 -16.8019,4.0406 -21.3366,2.5636 z m 18.9935,-5.9608 c 12.5915,-3.3115 19.7247,-4.2292 45.4565,-5.8475 36.4375,-2.2919 85.6281,-8.1968 69.2762,-8.3163 -17.9912,-0.1314 -73.507,-4.4343 -96.8306,-7.5052 l -18.5455,-2.4419 -7.0189,5.2039 c -7.0416,5.2203 -13.1244,13.1518 -13.1476,17.1437 0,1.1748 0.9277,2.8523 2.0768,3.7279 2.4098,1.8358 5.5247,1.5092 18.7331,-1.9646 z m 330.2644,2.2775 c 4.7067,-3.5859 -0.475,-13.2905 -11.6299,-21.7816 -9.6704,-7.3608 -17.9196,-10.064 -35.0823,-11.496 -13.6228,-1.1365 -21.4734,-3.641 -31.5318,-10.0592 -14.1018,-8.998 -22.8283,-10.1065 -37.6068,-4.7769 -13.0872,4.7197 -18.1297,5.4842 -31.5264,4.7799 -6.5223,-0.343 -12.7479,-0.8836 -13.835,-1.2016 -1.5981,-0.4671 -1.9763,0.273 -1.9763,3.8683 0,4.4319 -2.1611,18.3651 -3.313,21.3623 -0.4995,1.2985 0.9366,1.6961 8.1097,2.2456 4.794,0.3673 22.6157,2.1694 39.6038,4.0048 16.988,1.8353 41.8911,4.0431 55.34,4.9065 26.3753,1.6927 35.2609,2.9385 48.2616,6.7658 9.4156,2.7719 12.9405,3.0928 15.1864,1.3821 z m -159.2423,-52.8761 c 24.7692,-6.2707 41.9026,-12.348 77.1333,-27.3595 26.1086,-11.1247 60.0358,-21.5492 81.0791,-24.9127 5.309,-0.8486 17.3262,-2.0739 26.7049,-2.7229 13.2022,-0.9134 17.0524,-1.4963 17.0524,-2.5811 0,-1.1697 -2.7123,-1.3124 -16.4089,-0.8625 -35.8236,1.1762 -68.859,9.7427 -118.1354,30.6341 -10.9781,4.6543 -25.8812,10.5933 -33.1181,13.1977 -12.084,4.3488 -40.6982,12.7096 -48.7994,14.2584 -7.8843,1.5076 -43.751,-10.3909 -87.9078,-29.1626 -47.2083,-20.0689 -76.6719,-27.5815 -113.3667,-28.9062 -13.3997,-0.4836 -15.664,-0.348 -16.3322,0.9789 -0.6425,1.275 0.7067,1.6374 7.8346,2.1041 48.4284,3.1719 74.632,9.7148 121.5587,30.3536 12.3735,5.4419 43.2874,17.5032 53.0716,20.706 8.6059,2.817 29.4715,8.3055 31.6159,8.3158 1.1085,0.013 9.2166,-1.813 18.018,-4.0411 z m -308.3161,-75.7823 c 34.7699,-7.13 110.1251,-34.3512 141.3074,-51.0457 19.8767,-10.6416 26.6094,-20.1394 40.6601,-57.3617 9.0342,-23.9309 11.7219,-33.8452 11.7376,-43.2937 0.028,-10.9893 1.6809,-16.1316 9.34,-28.8899 5.4454,-9.0708 9.0256,-17.1661 12.3781,-27.9878 2.2863,-7.3815 4.4997,-29.2603 3.0699,-30.3495 -1.4076,-1.0724 -16.9733,3.3201 -28.9353,8.1648 -8.8115,3.569 -20.0935,12.2966 -24.5286,18.9746 -6.8476,10.3107 -11.9756,26.3972 -17.0165,53.3801 -5.4774,29.3205 -16.1263,64.7707 -21.4141,71.2885 -2.7731,3.418 -24.2939,18.0757 -59.6758,40.6454 -26.049,16.6162 -35.4866,22.1042 -41.0658,23.8802 -4.235,1.3481 -4.8779,1.2572 -13.8621,-1.9551 -6.3853,-2.2832 -12.8806,-3.7187 -20.1596,-4.4557 -11.9997,-1.2147 -15.5895,-2.0676 -20.9601,-4.981 -2.0312,-1.1019 -3.693,-1.5914 -3.693,-1.0883 0,1.8288 5.2434,5.9236 11.5029,8.9838 3.5221,1.7217 6.7709,4.0109 7.2191,5.0869 1.391,3.3388 -0.4506,6.3991 -4.6478,7.7236 -3.435,1.0841 -4.7949,0.997 -9.9906,-0.6397 l -6.0139,-1.8946 -0.6437,-8.2273 c -0.3537,-4.5252 -1.2273,-8.3738 -1.9414,-8.5528 -1.3701,-0.3438 -5.782,13.0228 -5.7809,17.5147 3e-4,1.4511 -0.5678,2.9059 -1.262,3.2329 -0.6946,0.327 -4.8936,-0.5756 -9.3307,-2.0055 -4.4372,-1.4301 -9.8052,-2.8271 -11.9287,-3.1044 l -3.861,-0.5041 4.5043,3.61 c 10.8969,8.7334 32.1585,16.1714 46.331,16.2082 3.8932,0.013 12.2908,-1.0505 18.6612,-2.3569 z m 618.48,0.8289 c 12.2465,-2.718 35.9471,-14.037 35.9471,-17.1681 0,-1.4609 -4.1379,-0.9759 -10.2959,1.2067 -3.1852,1.1289 -7.6551,2.3932 -9.9333,2.8094 -4.8256,0.8817 -4.3738,1.592 -7.5976,-11.947 -1.9296,-8.1049 -2.501,-9.252 -3.9065,-7.8434 -0.9694,0.9714 -1.6631,4.5223 -1.6872,8.6377 -0.047,7.7792 -0.5506,8.374 -8.6699,10.2098 -4.644,1.0502 -5.8616,0.9988 -8.5892,-0.3629 -6.9245,-3.4563 -5.3384,-7.9523 4.5121,-12.7889 5.7263,-2.8117 12.2526,-8.1498 11.0678,-9.0524 -0.359,-0.2737 -3.1779,0.8384 -6.2641,2.4714 -4.5326,2.3983 -7.7574,3.1663 -16.7806,3.9963 -11.9603,1.1001 -17.7386,2.3853 -26.5828,5.9122 -5.2519,2.0945 -5.8239,2.1353 -9.774,0.7005 -2.3077,-0.8383 -11.6241,-6.0862 -20.7034,-11.6621 -9.0792,-5.5759 -18.2907,-11.2306 -20.4696,-12.5661 -2.1798,-1.3355 -8.042,-5.0856 -13.0282,-8.3335 -34.4711,-22.4549 -43.6376,-28.8607 -46.3568,-32.3955 -4.57,-5.9405 -13.9206,-36.4704 -20.5637,-67.1402 -13.554,-62.5746 -18.8268,-69.7643 -60.3905,-82.3423 -5.3693,-1.6248 -10.0366,-2.9542 -10.3721,-2.9542 -0.3354,0 -0.6101,3.9219 -0.6101,8.7153 0,15.6164 5.3882,32.8494 16.1469,51.6412 7.5291,13.1511 10.3423,22.4252 9.1424,30.1424 -0.8476,5.4523 2.2767,16.0339 12.9373,43.8164 11.2283,29.2616 18.5659,41.4796 29.2158,48.6472 22.1249,14.8908 115.8473,50.2298 150.6999,56.823 14.0152,2.6514 23.6003,2.8923 32.9062,0.8271 z m -433.5906,-9.7235 c 1.3561,-2.6962 8.5319,-14.3877 15.9461,-25.9812 18.1646,-28.4036 20.1132,-36.0262 14.8199,-57.9751 -2.5779,-10.6881 -5.6363,-18.0059 -13.4674,-32.2236 -2.5244,-4.5835 -4.6007,-8.9112 -4.6135,-9.6169 0,-0.7059 -0.603,-1.0108 -1.3108,-0.6776 -0.7076,0.3333 -1.2868,1.5 -1.2868,2.5928 0,2.9451 -12.2826,36.8918 -17.404,48.0999 -8.8697,19.4122 -15.0684,26.6346 -29.924,34.8656 -19.0428,10.5507 -66.3389,29.8103 -94.5612,38.5064 -7.5867,2.3378 -10.2031,4.4969 -3.8608,3.1863 1.9467,-0.4022 19.1759,-0.7279 38.2875,-0.7234 32.8913,0.013 59.9782,1.5171 78.5056,4.3745 2.8313,0.4366 7.6804,0.7219 10.7756,0.6341 5.5104,-0.1564 5.6793,-0.2623 8.0938,-5.0618 z m 255.2562,2.411 c 23.2668,-2.2168 76.3629,-3.4127 91.6969,-2.0653 4.4242,0.3888 8.0436,0.4553 8.0436,0.1479 0,-0.3074 -7.6734,-3.1384 -17.0524,-6.2909 -9.3786,-3.1524 -27.4769,-9.9297 -40.2179,-15.0605 -41.577,-16.7428 -56.4034,-25.4961 -64.8979,-38.3153 -6.1498,-9.2809 -14.436,-28.1135 -21.3221,-48.4591 -3.4276,-10.1276 -6.605,-18.069 -7.0604,-17.6476 -0.9583,0.8864 -9.0255,16.6506 -12.9355,25.2769 -6.7797,14.9575 -9.576,35.7803 -6.2285,46.3809 0.7991,2.5304 7.6871,14.7483 15.3068,27.1507 7.6197,12.4022 14.5707,24.3144 15.4468,26.4713 0.8762,2.1568 1.8861,4.3082 2.2439,4.7809 0.7202,0.9509 5.0051,0.6762 36.9767,-2.3699 z m -459.4501,-12.1678 c 0,-1.1334 -2.0992,-3.0036 -5.1479,-4.5868 l -5.148,-2.6732 -0.7307,2.1356 c -1.0682,3.1212 -0.06,5.2047 3.0947,6.3882 4.1745,1.5667 7.9319,0.9682 7.9319,-1.2638 z m 633.0977,1.1066 c 2.2502,-1.2533 3.817,-6.1106 2.4966,-7.7384 -0.84,-1.035 -12.0548,5.0931 -12.0548,6.5872 0,2.7061 5.5637,3.3763 9.5582,1.1512 z m -303.8894,-201.7109 c 9.878,-1.4711 19.1734,-5.91 29.3507,-14.0165 5.2932,-4.2165 10.7533,-11.3799 9.3665,-12.2891 -0.6256,-0.4102 -5.0344,-2.823 -9.7967,-5.362 -13.0896,-6.97759 -18.9106,-16.44955 -18.9841,-30.8897 l -0.028,-5.26378 -4.4965,2.61275 c -14.4207,8.37921 -31.1454,8.56376 -44.525,0.49125 l -5.0314,-3.03597 v 6.24924 c 0,3.43693 -0.8944,8.87867 -1.9873,12.09248 -3.1631,9.30216 -6.8624,12.71922 -24.0131,22.18073 l -2.9567,1.6309 3.1294,4.5756 c 1.7213,2.5165 6.639,6.9948 10.928,9.9518 16.3918,11.3003 34.5913,14.7133 59.0427,11.0723 z m -3.9674,-64.76811 c 7.1066,-2.7435 20.6027,-12.7896 26.5248,-19.74435 2.8641,-3.36362 6.6757,-9.46579 8.4703,-13.56032 3.8289,-8.73685 6.5637,-24.53599 5.3308,-30.79904 -0.8527,-4.333 -1.0083,-4.45088 -10.1183,-7.68255 -13.6392,-4.83835 -28.7036,-13.82216 -36.8898,-21.99946 l -7.0061,-6.99835 -8.4371,6.57882 c -4.6406,3.61826 -15.8542,10.49381 -24.9193,15.2789 -10.0222,5.29057 -16.9499,9.63821 -17.6762,11.09357 -1.8362,3.67909 -1.4181,18.15403 0.7672,26.57253 4.758,18.32603 23.9872,37.66418 42.3149,42.55435 7.4781,1.99512 14.1527,1.596 21.6388,-1.2941 z m -592.65171,71.60211 c -7.41296,-1.3298 -12.01127,-3.4682 -15.97901,-7.4312 -3.06887,-3.0654 -3.60569,-4.522 -3.60569,-9.7863 0,-5.6216 0.36686,-6.4647 4.02627,-9.2523 5.42447,-4.1326 13.83546,-4.9757 20.11984,-2.0169 10.59325,4.9876 9.69727,16.1803 -1.58053,19.7389 -4.9802,1.5714 -4.94546,2.5512 0.1178,3.3226 6.72432,1.0247 10.3597,0.7048 16.11471,-1.4176 11.19029,-4.1268 13.48134,-11.5481 8.95082,-28.9954 l -2.32807,-8.96617 -14.34486,-0.36439 c -12.83009,-0.32592 -15.22871,-0.68476 -22.71031,-3.39718 -12.12546,-4.39601 -19.65802,-9.92772 -25.24471,-18.53892 -4.14394,-6.38723 -4.78694,-8.37208 -5.34464,-16.49617 -1.15096,-16.76261 4.91495,-26.60024 27.98939,-45.39406 12.39231,-10.09335 13.00895,-10.79698 12.32103,-14.05667 -4.28398,-20.29016 -3.52611,-32.88777 2.59011,-43.06529 6.07163,-10.10331 15.82359,-17.47923 21.63918,-16.36726 4.22209,0.80723 10.68208,8.76842 14.45029,17.80796 7.81527,18.74796 0.93168,38.32034 -19.93689,56.68894 l -4.9201,4.33033 2.6085,8.8099 2.60826,8.81002 7.32244,0.50566 c 8.88543,0.61397 17.1083,3.26051 23.58092,7.58997 6.18606,4.13765 9.39869,8.98635 11.01264,16.62098 2.91429,13.78536 -4.60373,25.2369 -20.66651,31.47966 -5.60657,2.17887 -5.58337,1.93513 -1.59712,16.90569 2.43781,9.1551 2.21363,17.0049 -0.62109,21.7586 -5.72773,9.605 -20.37718,14.0818 -36.57279,11.1766 z m 22.05772,-51.76512 c 1.43449,-0.69234 0.90416,-3.9722 -2.97054,-18.36784 -2.59419,-9.63872 -5.23562,-17.92369 -5.86957,-18.41117 -1.74737,-1.34311 -10.28157,4.08048 -12.34723,7.84689 -3.55052,6.47365 -2.19993,10.05153 6.34616,16.81453 3.88793,3.07649 4.67957,4.16679 3.02584,4.16679 -4.39205,0 -10.59505,-2.70271 -15.27931,-6.65759 -12.33101,-10.41039 -8.76619,-26.21873 7.7845,-34.52012 6.75076,-3.38606 6.83082,-3.48352 6.03737,-7.35315 -0.44223,-2.15694 -1.3923,-5.60509 -2.11123,-7.66261 l -1.30695,-3.74093 -5.39753,3.66748 c -9.6064,6.5276 -18.98694,15.4295 -23.13197,21.95217 -3.54812,5.58305 -4.05573,7.40536 -4.09684,14.7063 -0.0349,6.32565 0.55365,9.25566 2.44551,12.16052 4.74087,7.27898 14.89635,13.19015 26.1227,15.205 6.37706,1.14457 18.54411,1.25816 20.74909,0.19373 z m 17.01178,-6.92976 c 10.59398,-8.48382 9.06405,-22.66582 -3.05745,-28.34112 -4.15296,-1.94445 -13.77018,-3.81448 -13.77018,-2.67772 0,0.33746 2.02708,8.16284 4.50432,17.38981 2.47772,9.22683 4.5048,16.94148 4.5048,17.14301 0,1.43225 3.74308,-0.25015 7.81851,-3.51398 z M 812.0267,890.36659 c 9.09866,-8.74109 13.36654,-15.68265 14.1368,-22.9916 0.79309,-7.52464 -1.56094,-11.07803 -7.3388,-11.07803 -8.07623,0 -15.30191,11.45629 -16.46438,26.10475 -0.71953,9.06697 0.0433,14.09248 2.13671,14.09248 0.63334,0 4.02194,-2.75747 7.52967,-6.1276 z m 1095.0487,114.21901 c -10.7178,-16.59546 -9.0114,-15.08991 -15.211,-13.42343 -2.9349,0.78884 -5.6259,1.21372 -5.9798,0.94411 -0.3537,-0.2695 0.3096,-2.33788 1.474,-4.59637 1.1647,-2.25838 1.9065,-4.26659 1.649,-4.46258 -0.2576,-0.1963 -7.7934,-3.10673 -16.7466,-6.46801 l -16.2784,-6.11121 4.8562,-3.60363 4.8556,-3.60376 12.2262,0.90502 c 6.7248,0.49762 15.2167,0.91683 18.871,0.93135 l 6.6449,0.0271 18.7731,-15.28827 c 10.3251,-8.40852 18.7731,-15.61568 18.7731,-16.01562 0,-0.40018 -15.7815,-5.89842 -35.0703,-12.21838 -19.2885,-6.31996 -37.8351,-12.42917 -41.215,-13.57593 l -6.1447,-2.08502 4.858,-3.82361 c 7.0538,-5.55183 10.2289,-6.58627 17.1115,-5.57481 11.9921,1.76243 14.1304,1.35489 21.3362,-4.06631 5.8385,-4.39256 6.9717,-4.86548 9.3413,-3.8992 1.4838,0.60481 3.3472,2.02482 4.1417,3.15556 1.1757,1.67333 0.9416,2.57424 -1.2574,4.83986 -1.4862,1.53122 -2.7018,2.96195 -2.7018,3.17943 0,0.21746 4.4155,0.93801 9.8126,1.60125 l 9.8127,1.20597 6.7624,-5.08775 c 7.4637,-5.61507 9.8359,-5.90864 13.9332,-1.72419 l 2.628,2.68391 -3.0329,2.45937 c -1.6682,1.35274 -2.7037,2.71015 -2.3014,3.0166 0.4022,0.30632 6.5964,1.22035 13.7647,2.03101 l 13.0336,1.47403 16.1126,-11.73307 c 16.9464,-12.3403 28.4884,-18.09634 38.8066,-19.3533 4.5016,-0.5484 5.4664,-0.34531 6.6998,1.41043 4.3384,6.17545 -8.2826,22.01107 -29.7968,37.38652 l -8.9173,6.37272 2.2063,11.76503 c 1.2135,6.47081 2.4185,11.95074 2.6773,12.17753 0.2576,0.22666 1.8845,-0.59932 3.6119,-1.83578 3.723,-2.66449 8.8207,-2.1769 11.0955,1.06093 1.2797,1.82161 0.6564,2.67866 -5.2733,7.25264 l -6.7243,5.18711 0.8785,6.24792 c 1.1291,8.03339 2.1166,9.30279 5.2102,6.69855 3.2285,-2.7174 7.8688,-2.52429 10.4128,0.43349 1.9501,2.26726 1.9111,2.59727 -0.6292,5.31511 -1.4897,1.5936 -4.4966,4.04379 -6.6818,5.44462 l -3.9735,2.5469 1.4149,6.18922 c 2.5548,11.17614 2.1805,12.50494 -4.9753,17.66614 l -6.39,4.6091 -3.1144,-4.6918 c -1.7129,-2.5805 -8.0384,-13.07427 -14.0569,-23.31979 -15.3166,-26.07417 -20.4385,-33.93758 -21.8682,-33.57448 -0.6809,0.1728 -10.1772,6.69476 -21.1027,14.49332 l -19.8651,14.17907 0.7496,9.80418 c 0.4123,5.39226 1.0641,11.846 1.4488,14.3413 0.628,4.0756 0.2833,4.8979 -3.3942,8.0884 -2.2515,1.9534 -4.6292,3.5516 -5.2844,3.5516 -0.6547,0 -4.2535,-4.7428 -7.9971,-10.5396 z M 1374.2459,809.48185 c -0.37,-1.48287 -1.0193,-11.29933 -1.4432,-21.81434 -0.9887,-24.51049 -5.4994,-114.61556 -6.4879,-129.60088 l -0.7562,-11.46016 -4.9681,-3.7848 c -8.6258,-6.57115 -8.6301,-15.27713 0,-21.84345 l 5.0277,-3.83006 1.2815,-33.12613 c 0.7046,-18.21939 1.6001,-43.9353 1.9897,-57.14646 0.39,-13.21115 1.012,-30.85874 1.3821,-39.21682 0.3704,-8.35809 1.2357,-38.7792 1.9228,-67.60248 0.7681,-32.22282 1.7435,-52.78258 2.5329,-53.3839 0.8097,-0.61681 1.7123,-0.63401 2.4441,-0.0465 0.6382,0.51226 1.5128,14.38766 1.9434,30.83423 0.4307,16.44657 1.0605,36.74127 1.3999,45.09935 0.3392,8.35809 0.9081,25.34388 1.2639,37.74621 1.6803,58.5734 2.0322,69.39592 2.5979,79.9043 0.3334,6.20115 0.9745,21.6059 1.4244,34.23277 l 0.8176,22.95796 3.5514,2.27649 c 10.3059,6.60631 9.9988,18.48083 -0.6555,25.33916 -2.9751,1.91523 -3.0637,2.43989 -3.8049,22.54967 -0.4174,11.32387 -1.0177,23.01539 -1.3344,25.98117 -0.3167,2.96577 -0.8961,15.09847 -1.2878,26.96157 -0.3917,11.86308 -0.9717,23.9958 -1.2892,26.96158 -0.3173,2.96576 -0.9133,17.74561 -1.3245,32.84408 -0.4114,15.09848 -1.0155,28.44446 -1.3427,29.65773 -0.8316,3.08267 -4.065,2.75749 -4.8743,-0.49022 z M 618.85394,672.71317 c -1.96581,-1.38875 -3.89548,-4.56675 -5.20906,-8.57869 -3.66229,-11.18548 -13.69063,-44.2984 -13.69063,-45.20543 0,-0.50265 33.44606,-0.87435 78.67397,-0.87435 h 78.67368 l -0.73431,3.18636 c -0.57324,2.48731 -7.57612,25.59994 -14.39903,47.52328 -0.37296,1.19835 -1.9385,3.07341 -3.47911,4.16679 -2.72643,1.93493 -4.32082,1.98798 -59.75718,1.98798 h -56.95595 z m 1398.90736,-3.45343 -24.2487,-0.26707 27.98,-21.79241 c 15.389,-11.98582 28.4263,-21.92767 28.9717,-22.09299 0.5455,-0.16534 4.6901,2.08959 9.2106,5.01095 9.3031,6.01211 12.5996,7.54491 16.2267,7.54491 1.3915,0 7.2877,-2.92618 13.102,-6.50261 l 10.5723,-6.50262 29.1275,22.18934 29.1275,22.18935 -30.8839,0.0276 c -16.986,0.0151 -43.0459,0.12545 -57.9102,0.2451 -14.8648,0.11964 -37.9388,0.0974 -51.2755,-0.0495 z m 116.9595,-25.69716 c -29.04,-22.19519 -29.5081,-22.61719 -27.0265,-24.37938 1.3891,-0.98629 9.7647,-6.38438 18.6128,-11.9958 8.8478,-5.61142 16.3767,-10.42797 16.7305,-10.70346 0.354,-0.2755 4.4079,-2.9247 9.0089,-5.88711 4.6008,-2.96243 9.2341,-6.01703 10.296,-6.788 1.7124,-1.24363 1.9695,0.93373 2.2774,19.29698 0.1919,11.38433 0.1919,30.2262 0,41.87083 l -0.3471,21.17208 z m -148.7109,19.09858 c -0.1976,-34.48469 0.091,-78.32323 0.5132,-78.6458 0.5137,-0.39132 39.6214,24.22455 52.4342,33.00409 l 5.6267,3.85561 -29.2786,22.36233 c -26.9039,20.54841 -29.2801,22.12397 -29.2955,19.42377 z M 877.05219,634.0984 c -0.44438,-0.88215 -0.21756,-2.31601 0.50208,-3.18638 1.16452,-1.40683 7.15128,-1.61272 53.93617,-1.85505 28.94432,-0.14991 53.86501,-0.0435 55.37955,0.23664 3.0893,0.57122 4.61755,2.72574 3.50328,4.93804 -0.64272,1.27598 -8.13765,1.47063 -56.62712,1.47063 -50.55274,0 -55.96313,-0.15305 -56.69396,-1.60388 z m 885.44451,0.0107 c -0.4475,-0.88789 -0.2234,-2.32643 0.4968,-3.1968 1.1632,-1.40531 7.0573,-1.61405 52.6488,-1.86444 28.2366,-0.15507 53.2567,-0.0198 55.6003,0.30074 3.7191,0.50859 4.2101,0.91856 3.8608,3.22323 l -0.4001,2.64056 -55.6966,0.25553 c -50.715,0.23269 -55.7696,0.11115 -56.51,-1.35878 z m 296.7625,-11.88787 c -8.0713,-5.25781 -23.9414,-15.48379 -35.2667,-22.7244 -11.3255,-7.24062 -23.0401,-14.85088 -26.0324,-16.91171 l -5.441,-3.74693 82.6592,0.0327 82.6595,0.0327 -3.1868,2.01998 c -1.7528,1.11099 -6.0966,3.91679 -9.6524,6.23514 -3.556,2.31834 -18.0482,11.61775 -32.2049,20.66536 -14.1566,9.0476 -28.2823,18.13922 -31.3901,20.20359 -3.1082,2.06439 -6.0602,3.75342 -6.56,3.75342 -0.5002,0 -7.5132,-4.30183 -15.5844,-9.55963 z M 589.19482,611.35727 c -1.8976,-0.27796 -2.16441,-1.34204 -1.84271,-7.35316 l 0.37591,-7.0282 21.87866,-0.49021 c 13.57636,-0.3042 20.77924,-0.79444 18.98149,-1.29193 -4.80668,-1.33017 -6.15037,-4.37954 -3.26215,-7.40437 1.3539,-1.41821 7.02473,-7.65223 12.60157,-13.85338 18.29074,-20.33806 18.02099,-20.0821 21.48385,-20.39697 3.82292,-0.34761 7.46561,2.0304 7.46561,4.87378 0,1.09139 -3.1854,5.47177 -7.07823,9.73418 -3.89323,4.26242 -10.35649,11.38965 -14.3629,15.83831 -4.00627,4.44866 -8.45076,9.08116 -9.87652,10.29442 l -2.59256,2.20596 h 68.32672 c 44.00802,0 68.47961,0.34593 68.75595,0.97194 0.23476,0.53457 0.1404,3.9538 -0.21468,7.59826 l -0.64368,6.62631 h -88.88886 c -48.88893,0 -89.88732,-0.14623 -91.10776,-0.32494 z m 131.53232,-18.54815 c -2.80053,-2.31747 -8.36084,-8.25516 -27.14527,-28.98783 -4.03036,-4.44815 -4.41692,-6.72435 -1.51693,-8.93345 2.81089,-2.14142 9.16,-1.98174 10.74206,0.27017 0.6997,0.99597 7.66968,8.89619 15.48893,17.55607 7.81912,8.65986 14.21683,16.64374 14.21683,17.74197 0,1.95946 -4.35949,5.04922 -7.12403,5.04922 -0.77184,0 -2.86958,-1.21328 -4.66159,-2.69615 z M 1006.6386,345.4401 c 0,-0.57106 0.5789,-0.76562 1.2869,-0.43233 0.7078,0.33326 1.287,0.80049 1.287,1.03827 0,0.23779 -0.5792,0.43236 -1.287,0.43236 -0.708,0 -1.2869,-0.46723 -1.2869,-1.0383 z m 2.5739,-1.96083 c 0,-0.57106 0.5792,-0.76561 1.2869,-0.43236 0.7077,0.33327 1.287,0.8005 1.287,1.0383 0,0.23779 -0.5793,0.43233 -1.287,0.43233 -0.7077,0 -1.2869,-0.46722 -1.2869,-1.03827 z m 2.5739,-1.96085 c 0,-0.57104 0.5791,-0.7656 1.2868,-0.43233 0.7081,0.33325 1.2873,0.80048 1.2873,1.03828 0,0.23778 -0.5792,0.43234 -1.2873,0.43234 -0.7077,0 -1.2868,-0.46723 -1.2868,-1.03829 z m 360.6609,-46.20412 0.3356,-42.4661 3.4943,-0.30692 c 2.7549,-0.24197 3.6479,0.17305 4.2187,1.96083 0.3985,1.24727 0.5634,20.35653 0.3666,42.46503 l -0.3578,40.19725 -4.1962,0.308 -4.1964,0.308 z m 483.1416,17.6717 c -1.1587,-4.40081 -2.2546,-8.05402 -2.4353,-8.11825 -0.1804,-0.0642 -3.9115,-1.3843 -8.2902,-2.9335 l -7.9615,-2.81673 -9.1924,4.23128 -9.1927,4.23126 -9.0375,-6.88476 -9.0376,-6.88474 6.0056,-6.88051 6.0062,-6.88048 -3.7545,-6.30792 -3.7547,-6.30792 -10.1645,-1.46022 -10.1648,-1.46024 v -9.75421 -9.75422 l 10.1883,-1.96085 10.1883,-1.96082 3.6075,-6.1619 3.6073,-6.16192 -5.7521,-6.40042 c -3.1636,-3.52024 -5.7521,-6.71528 -5.7521,-7.10008 0,-0.38479 4.0271,-3.74411 8.9495,-7.46512 l 8.9495,-6.76545 8.7466,4.41698 8.7461,4.41698 7.0785,-2.33715 c 10.7868,-3.56155 10.8498,-3.60529 11.844,-8.21037 0.512,-2.37125 1.2718,-5.7604 1.6885,-7.53144 l 0.7575,-3.22012 13.0868,0.27884 13.0866,0.27884 1.0224,4.41191 c 1.9176,8.27567 3.601,11.76505 5.6754,11.76505 1.1074,0 4.8734,1.09426 8.3689,2.43172 l 6.3553,2.43169 7.9239,-4.39255 c 4.3584,-2.4159 8.549,-4.39254 9.3126,-4.39254 2.2042,0 17.4014,12.13791 17.4014,13.89846 0,0.87476 -2.2693,4.16207 -5.0427,7.30515 -4.9937,5.6592 -5.0235,5.74822 -3.0577,9.16779 1.0918,1.89922 2.2666,4.43232 2.611,5.62912 0.9037,3.13958 2.5691,3.87548 11.9244,5.26928 4.6007,0.68547 8.8319,1.54344 9.4024,1.90658 1.8302,1.16488 2.3084,18.27441 0.5408,19.34078 -0.8681,0.5235 -5.5149,1.50504 -10.3262,2.1812 l -8.7475,1.22935 -3.8005,5.7348 c -2.0899,3.15415 -3.8,6.16745 -3.8,6.69622 0,0.52877 2.69,3.89288 5.9776,7.47579 l 5.978,6.51437 -9.2066,7.01339 c -8.9567,6.82304 -9.2918,6.97346 -12.3502,5.54274 -1.7287,-0.80884 -5.7641,-2.69652 -8.9676,-4.19484 l -5.8241,-2.7242 -8.6801,2.80056 c -8.1647,2.63431 -8.7388,3.02887 -9.6678,6.64589 -0.5435,2.11494 -1.6486,5.72038 -2.4564,8.0121 l -1.4682,4.1668 h -12.5195 -12.5194 z m 32.283,-35.08641 c 5.5409,-2.22913 13.208,-9.16086 15.8665,-14.34446 2.5347,-4.9422 1.9667,-14.08916 -1.2127,-19.53072 -3.8553,-6.59833 -8.3148,-9.9971 -17.5266,-13.35803 -9.9048,-3.61382 -19.1189,-3.77878 -28.3404,-0.5074 -13.26,4.70395 -20.2793,13.04024 -20.3223,24.1351 -0.049,12.3164 8.9777,21.82647 24.2102,25.51036 6.5272,1.57856 21.2108,0.55496 27.3253,-1.90485 z m -842.6241,41.72213 c 0,-0.21193 0.8686,-0.63927 1.9306,-0.94966 1.0615,-0.31039 1.9302,-0.13698 1.9302,0.38531 0,0.52232 -0.8687,0.94966 -1.9302,0.94966 -1.062,0 -1.9306,-0.1734 -1.9306,-0.38531 z m 10.2958,-5.49721 c 0,-0.53923 0.6134,-0.98042 1.363,-0.98042 0.7495,0 1.0049,0.44119 0.5674,0.98042 -0.4375,0.53923 -1.0506,0.98042 -1.363,0.98042 -0.3121,0 -0.5674,-0.44119 -0.5674,-0.98042 z m 12.5265,-6.98461 c 0.8732,-0.67003 1.9115,-0.97128 2.3077,-0.66941 0.3962,0.30185 -0.318,0.85007 -1.5875,1.21824 -1.8339,0.53207 -1.9818,0.41945 -0.7202,-0.54883 z M 858.63646,246.96569 c 0,-40.91089 0.33452,-51.47209 1.63161,-51.47209 0.89743,0 3.64824,1.02951 6.1131,2.28782 2.46473,1.2583 8.30798,3.84953 12.9849,5.75826 4.67705,1.90875 13.36402,5.69436 19.30451,8.41249 9.61108,4.39744 39.54514,17.77531 64.8542,28.98405 13.52305,5.98904 13.45261,5.64883 2.1646,10.46064 -5.43745,2.31791 -12.49244,5.41955 -15.67779,6.89255 -3.18546,1.47299 -8.39765,3.72946 -11.58299,5.01434 -3.18498,1.28491 -7.23902,3.02887 -9.00875,3.8755 -3.21227,1.53685 -40.77685,18.6648 -48.45618,22.09423 -12.98923,5.80054 -20.90691,9.16429 -21.57127,9.16429 -0.41589,0 -0.75594,-23.16244 -0.75594,-51.47208 z m 237.74714,45.4679 c 0.8729,-0.67003 1.9113,-0.97128 2.3078,-0.66941 0.396,0.30186 -0.3183,0.85007 -1.5875,1.21825 -1.8341,0.53206 -1.9819,0.41944 -0.7203,-0.54884 z m 169.9827,-52.51037 c 0.929,-0.28322 2.0389,-0.2484 2.4664,0.0774 0.4278,0.32577 -0.3323,0.55751 -1.6887,0.51493 -1.4994,-0.0471 -1.8044,-0.27936 -0.7777,-0.59234 z m 48.8396,-5.90622 c 1.6008,-0.23449 3.9175,-0.2256 5.1477,0.0199 1.2305,0.24539 -0.079,0.43727 -2.9105,0.42639 -2.8315,-0.0118 -3.8382,-0.21167 -2.2372,-0.44616 z m 14.1416,-0.93631 c 0.885,-0.27198 2.3327,-0.27198 3.2174,0 0.8848,0.27197 0.1604,0.49451 -1.6086,0.49451 -1.7698,0 -2.4934,-0.22254 -1.6088,-0.49451 z m 6.5153,-0.0204 c 0.9291,-0.28321 2.0391,-0.24838 2.4667,0.0774 0.4278,0.32579 -0.3326,0.55751 -1.6891,0.51495 -1.4993,-0.0471 -1.8042,-0.27938 -0.7776,-0.59234 z m -29.6939,-80.49839 -11.2741,-0.28341 0.3348,-44.32574 0.3348,-44.325727 11.4654,-0.28553 c 6.3061,-0.157052 12.0008,0.122419 12.6556,0.621102 0.9044,0.689086 1.4232,46.944755 0.9821,87.552305 0,1.11977 -3.0053,1.33593 -14.4986,1.047 z m 126.8834,-0.69703 c -1.4315,-0.80453 -1.6838,-8.80727 -1.4064,-44.60916 l 0.3379,-43.628709 11.4655,-0.285551 c 6.3059,-0.157031 11.9669,0.09639 12.5798,0.563462 0.9441,0.719242 1.1859,18.551761 1.0691,78.819038 l -0.029,9.48705 -11.1412,0.31715 c -6.1278,0.17443 -11.9266,-0.12406 -12.886,-0.66328 z M 1266.9134,138.4696 c -2.2504,-1.71435 -2.2962,-58.718726 -0.049,-60.430965 2.208,-1.682093 18.3265,-1.548796 20.1958,0.167033 1.0399,0.954473 1.3648,9.968665 1.123,31.128342 l -0.3408,29.78484 -9.6681,0.28214 c -6.4153,0.18722 -10.2041,-0.12621 -11.2611,-0.93139 z m 19.9597,-39.739824 c -0.2289,-5.826047 -0.4153,-1.327831 -0.4161,9.996034 0,11.32386 0.1861,16.09061 0.4142,10.59281 0.229,-5.49782 0.229,-14.76279 0,-20.588844 z m 177.9002,38.673334 c -0.4797,-37.326 0.091,-58.988926 1.5733,-59.724742 0.9199,-0.456656 5.7265,-0.716827 10.6812,-0.578155 l 9.0089,0.252125 0.3407,30.326272 c 0.2662,23.60889 -0.028,30.50061 -1.287,31.11335 -0.8953,0.43288 -5.8262,0.79383 -10.9582,0.80208 -8.8155,0.0143 -9.332,-0.10664 -9.3589,-2.19093 z m -214.328,-22.59035 c -0.3856,-0.76527 -0.5264,-4.21268 -0.3131,-7.66088 l 0.3882,-6.26948 h 4.5043 4.5045 v 7.35317 7.35315 l -4.1916,0.30772 c -2.7281,0.20029 -4.4362,-0.17808 -4.8923,-1.08368 z m 241.383,-6.63357 v -7.89974 l 5.4695,0.30147 5.4698,0.30148 0.3977,5.33991 c 0.6355,8.5321 -0.2005,9.85661 -6.2139,9.85661 h -5.1231 z m -166.02,0.0564 v -6.86295 h 50.192 50.1921 v 6.86295 6.86293 h -50.1921 -50.192 z"
       id="path237" />
  </g>
</svg>
